<svg
    width="51"
    height="30"
    viewBox="0 0 51 30"
    fill="none"
    xmlns="http://www.w3.org/2000/svg"
  >
    <path
      d="M14.2418 10.9449C14.2418 11.5548 14.3077 12.0493 14.4231 12.4119C14.555 12.7746 14.7198 13.1702 14.9506 13.5987C15.033 13.7306 15.066 13.8625 15.066 13.9779C15.066 14.1427 14.9671 14.3075 14.7528 14.4724L13.7143 15.1647C13.566 15.2636 13.4176 15.313 13.2858 15.313C13.1209 15.313 12.9561 15.2306 12.7913 15.0823C12.5605 14.835 12.3627 14.5713 12.1978 14.3075C12.033 14.0273 11.8682 13.7141 11.6869 13.335C10.4011 14.8515 8.78576 15.6097 6.8407 15.6097C5.45609 15.6097 4.35169 15.2141 3.544 14.4229C2.73631 13.6317 2.32422 12.5768 2.32422 11.2581C2.32422 9.85698 2.81872 8.71961 3.82422 7.86247C4.82971 7.00533 6.16488 6.57676 7.86268 6.57676C8.42312 6.57676 9.00004 6.62621 9.60993 6.70863C10.2198 6.79104 10.8462 6.92291 11.5055 7.07126V5.86797C11.5055 4.61522 11.2418 3.74159 10.7308 3.2306C10.2033 2.71961 9.31323 2.47236 8.044 2.47236C7.46708 2.47236 6.87367 2.5383 6.26378 2.68665C5.65389 2.835 5.06048 3.01632 4.48356 3.24709C4.21982 3.36247 4.02202 3.42841 3.90664 3.46137C3.79125 3.49434 3.70883 3.51082 3.6429 3.51082C3.41213 3.51082 3.29675 3.34599 3.29675 2.99983V2.19214C3.29675 1.92841 3.32971 1.7306 3.41213 1.61522C3.49455 1.49983 3.6429 1.38445 3.87367 1.26906C4.45059 0.972361 5.1429 0.725108 5.95059 0.527306C6.75828 0.31302 7.61543 0.214119 8.52202 0.214119C10.4836 0.214119 11.9176 0.659174 12.8407 1.54928C13.7473 2.43939 14.2088 3.79104 14.2088 5.60423V10.9449H14.2418ZM7.54949 13.4504C8.09345 13.4504 8.65389 13.3515 9.2473 13.1537C9.8407 12.9559 10.3682 12.5932 10.8132 12.0987C11.077 11.7855 11.2748 11.4394 11.3737 11.0438C11.4726 10.6482 11.5385 10.1702 11.5385 9.60972V8.91742C11.0605 8.80203 10.5495 8.70313 10.022 8.6372C9.49455 8.57126 8.98356 8.5383 8.47257 8.5383C7.36818 8.5383 6.56048 8.75258 6.01653 9.19764C5.47257 9.64269 5.20883 10.2691 5.20883 11.0932C5.20883 11.868 5.40664 12.4449 5.81872 12.8405C6.21433 13.2526 6.79125 13.4504 7.54949 13.4504ZM20.7858 15.2306C20.4891 15.2306 20.2913 15.1812 20.1594 15.0658C20.0275 14.9669 19.9121 14.7361 19.8132 14.4229L15.9396 1.68115C15.8407 1.35148 15.7913 1.1372 15.7913 1.02181C15.7913 0.758075 15.9231 0.609724 16.1869 0.609724H17.8022C18.1154 0.609724 18.3297 0.659174 18.4451 0.774559C18.577 0.87346 18.6759 1.10423 18.7748 1.41742L21.544 12.3295L24.1154 1.41742C24.1978 1.08775 24.2967 0.87346 24.4286 0.774559C24.5605 0.675658 24.7913 0.609724 25.088 0.609724H26.4066C26.7198 0.609724 26.9341 0.659174 27.066 0.774559C27.1978 0.87346 27.3132 1.10423 27.3792 1.41742L29.9836 12.4614L32.8352 1.41742C32.9341 1.08775 33.0495 0.87346 33.1649 0.774559C33.2967 0.675658 33.511 0.609724 33.8077 0.609724H35.3407C35.6044 0.609724 35.7528 0.741592 35.7528 1.02181C35.7528 1.10423 35.7363 1.18665 35.7198 1.28555C35.7033 1.38445 35.6704 1.51632 35.6044 1.69764L31.6319 14.4394C31.533 14.7691 31.4176 14.9834 31.2858 15.0823C31.1539 15.1812 30.9396 15.2471 30.6594 15.2471H29.2418C28.9286 15.2471 28.7143 15.1976 28.5825 15.0823C28.4506 14.9669 28.3352 14.7526 28.2693 14.4229L25.7143 3.79104L23.1759 14.4064C23.0935 14.7361 22.9945 14.9504 22.8627 15.0658C22.7308 15.1812 22.5 15.2306 22.2033 15.2306H20.7858ZM41.9671 15.6757C41.1099 15.6757 40.2528 15.5768 39.4286 15.379C38.6044 15.1812 37.9616 14.9669 37.533 14.7196C37.2693 14.5713 37.088 14.4064 37.022 14.2581C36.9561 14.1097 36.9231 13.9449 36.9231 13.7965V12.9559C36.9231 12.6097 37.055 12.4449 37.3022 12.4449C37.4011 12.4449 37.5 12.4614 37.5989 12.4943C37.6978 12.5273 37.8462 12.5932 38.011 12.6592C38.5715 12.9064 39.1814 13.1042 39.8242 13.2361C40.4836 13.368 41.1264 13.4339 41.7858 13.4339C42.8242 13.4339 43.6319 13.2526 44.1924 12.8899C44.7528 12.5273 45.0495 11.9998 45.0495 11.324C45.0495 10.8625 44.9011 10.4834 44.6044 10.1702C44.3077 9.85698 43.7473 9.57676 42.9396 9.31302L40.5495 8.57126C39.3462 8.19214 38.4561 7.6317 37.9121 6.88994C37.3682 6.16467 37.088 5.35698 37.088 4.49983C37.088 3.80753 37.2363 3.19764 37.533 2.67016C37.8297 2.14269 38.2253 1.68115 38.7198 1.31852C39.2143 0.939394 39.7748 0.659174 40.4341 0.461372C41.0934 0.26357 41.7858 0.181152 42.511 0.181152C42.8737 0.181152 43.2528 0.197636 43.6154 0.247086C43.9945 0.296537 44.3407 0.362471 44.6869 0.428405C45.0165 0.510823 45.3297 0.59324 45.6264 0.692141C45.9231 0.791042 46.1539 0.889944 46.3187 0.988845C46.5495 1.12071 46.7143 1.25258 46.8132 1.40093C46.9121 1.5328 46.9616 1.71412 46.9616 1.94489V2.71961C46.9616 3.06577 46.8297 3.24709 46.5825 3.24709C46.4506 3.24709 46.2363 3.18115 45.9561 3.04928C45.0165 2.62071 43.9616 2.40643 42.7913 2.40643C41.8517 2.40643 41.1099 2.55478 40.5989 2.86797C40.088 3.18115 39.8242 3.65917 39.8242 4.335C39.8242 4.79654 39.9891 5.19214 40.3187 5.50533C40.6484 5.81852 41.2583 6.1317 42.1319 6.41192L44.4726 7.15368C45.6594 7.5328 46.5165 8.06027 47.0275 8.7361C47.5385 9.41192 47.7858 10.1866 47.7858 11.0438C47.7858 11.7526 47.6374 12.3954 47.3572 12.9559C47.0605 13.5163 46.6649 14.0108 46.1539 14.4064C45.6429 14.8185 45.033 15.1152 44.3242 15.3295C43.5825 15.5603 42.8077 15.6757 41.9671 15.6757Z"
      fill="#232F3E"
    />
    <path
      fill-rule="evenodd"
      clip-rule="evenodd"
      d="M45.0809 23.687C39.6578 27.6925 31.7787 29.8189 25.004 29.8189C15.5095 29.8189 6.95454 26.3079 0.493001 20.4727C-0.0179882 20.0112 0.44355 19.3848 1.05344 19.7475C8.04245 23.8024 16.6633 26.2585 25.5809 26.2585C31.5974 26.2585 38.2073 25.0057 44.2897 22.4343C45.1963 22.0222 45.971 23.0277 45.0809 23.687Z"
      fill="#FF9900"
    />
    <path
      fill-rule="evenodd"
      clip-rule="evenodd"
      d="M47.3383 21.1155C46.646 20.2254 42.7559 20.687 40.9922 20.9012C40.4647 20.9672 40.3823 20.5056 40.8603 20.1595C43.9592 17.9837 49.0526 18.61 49.646 19.3353C50.2394 20.0771 49.4812 25.1705 46.5801 27.61C46.135 27.9892 45.7065 27.7914 45.9043 27.2968C46.5636 25.665 48.0306 21.9892 47.3383 21.1155Z"
      fill="#FF9900"
    />
  </svg>