<svg viewBox="0 0 16 16" width="48" height="48" fill="none" xmlns="http://www.w3.org/2000/svg">
<path fill-rule="evenodd" clip-rule="evenodd" d="m2.242 11.3.004-.003a1.191 1.191 0 0 1-.134-.57V5.27c0-.442.185-.784.57-1.005.444-.259 1.393-.804 2.33-1.343 1.019-.587 2.024-1.165 2.35-1.356.42-.247.826-.254 1.25-.01l2.37 1.364 2.336 1.345c.189.109.33.247.425.414.098.167.145.366.145.587V10.73c-.001.216-.048.407-.138.573a1.089 1.089 0 0 1-.432.428l-1.786 1.028c-.973.56-1.947 1.12-2.92 1.682-.388.228-.767.236-1.155.042a1.65 1.65 0 0 1-.103-.056c-.382-.227-1.702-.986-2.881-1.664-.747-.429-1.437-.826-1.799-1.036a1.137 1.137 0 0 1-.432-.428Zm7.452-2.351a1.95 1.95 0 0 1-1.698.994 1.94 1.94 0 0 1-1.69-.983A1.946 1.946 0 0 1 9.68 7.02l1.7-.98a3.91 3.91 0 1 0-3.385 5.866 3.913 3.913 0 0 0 3.4-1.974l-1.701-.983Zm2.151-1.88h-.388v.316h-.312v.388h.312v.468h-.312v.388h.312v.316h.388v-.316h.472v.316h.388v-.316h.316v-.388h-.316v-.468h.316v-.388h-.316V7.07h-.388v.316h-.472V7.07Zm0 1.172v-.468h.472v.468h-.472Z" fill="#9e71d6">
</path>
</svg>