<svg xmlns="http://www.w3.org/2000/svg" xmlns:xlink="http://www.w3.org/1999/xlink" viewBox="0,0,256,256" width="240px" height="240px"><g transform="translate(-25.6,-25.6) scale(1.2,1.2)"><g fill="none" fill-rule="nonzero" stroke="none" stroke-width="1" stroke-linecap="butt" stroke-linejoin="miter" stroke-miterlimit="10" stroke-dasharray="" stroke-dashoffset="0" font-family="none" font-weight="none" font-size="none" text-anchor="none" style="mix-blend-mode: normal"><g transform="scale(5.33333,5.33333)"><path d="M38.193,18.359c-0.771,-2.753 -2.319,-5.177 -4.397,-7.03l-4.598,4.598c1.677,1.365 2.808,3.374 3.014,5.648v1.508c0.026,0 0.05,-0.008 0.076,-0.008c2.322,0 4.212,1.89 4.212,4.212c0,2.322 -1.89,4.213 -4.212,4.213c-0.026,0 -0.05,-0.007 -0.076,-0.008v0.008h-6.666h-1.546v6.5h8.212v-0.004c0.026,0 0.05,0.004 0.076,0.004c5.907,0 10.712,-4.806 10.712,-10.712c0,-3.725 -1.914,-7.009 -4.807,-8.929z" fill="#1976d2"></path><path d="M19.56,25.59l4.72,-4.72c-0.004,-0.005 -0.008,-0.009 -0.011,-0.013l-4.717,4.717c0.002,0.005 0.005,0.01 0.008,0.016z" fill="#ffe082" opacity="0.5"></path><path d="M19.56,25.59l4.72,-4.72c-0.004,-0.005 -0.008,-0.009 -0.011,-0.013l-4.717,4.717c0.002,0.005 0.005,0.01 0.008,0.016z" fill="#90caf9" opacity="0.5"></path><path d="M24,7.576c-8.133,0 -14.75,6.617 -14.75,14.75c0,0.233 0.024,0.46 0.035,0.69h6.5c-0.019,-0.228 -0.035,-0.457 -0.035,-0.69c0,-4.549 3.701,-8.25 8.25,-8.25c1.969,0 3.778,0.696 5.198,1.851l4.598,-4.598c-2.608,-2.326 -6.035,-3.753 -9.796,-3.753z" fill="#ff3d00"></path><path d="M15.712,31.5v0c-0.001,0 -0.001,0 -0.002,0c-0.611,0 -1.188,-0.137 -1.712,-0.373l-4.71,4.71c1.793,1.351 4.013,2.163 6.422,2.163c0.001,0 0.001,0 0.002,0v0h8.288v-6.5z" fill="#90caf9" opacity="0.5"></path><path d="M15.712,31.5v0c-0.001,0 -0.001,0 -0.002,0c-0.611,0 -1.188,-0.137 -1.712,-0.373l-4.71,4.71c1.793,1.351 4.013,2.163 6.422,2.163c0.001,0 0.001,0 0.002,0v0h8.288v-6.5z" fill="#4caf50"></path><path d="M11.5,27.29c0,-2.32 1.89,-4.21 4.21,-4.21c1.703,0 3.178,1.023 3.841,2.494l4.717,-4.717c-1.961,-2.602 -5.065,-4.277 -8.559,-4.277c-5.899,0 -10.709,4.8 -10.709,10.71c0,3.491 1.691,6.59 4.288,8.547l4.71,-4.71c-1.468,-0.658 -2.498,-2.128 -2.498,-3.837z" fill="#ffc107"></path></g></g></g></svg>