<svg width="209" height="237" viewBox="0 0 413 468" fill="none" xmlns="http://www.w3.org/2000/svg">
<g clip-path="url(#clip0_482_2077)">
<path fill-rule="evenodd" clip-rule="evenodd" d="M22.8473 282.785L64.5426 324.516L298.085 90.8858L207.655 0.422852L22.8669 185.38C16.467 191.771 11.3893 199.362 7.92424 207.718C4.45916 216.074 2.67468 225.032 2.67285 234.078C2.67103 243.125 4.4519 252.082 7.91361 260.44C11.3753 268.799 16.4499 276.391 22.8473 282.785Z" fill="#061499"/>
<path fill-rule="evenodd" clip-rule="evenodd" d="M394.115 281.236C393.594 281.792 393.063 282.341 392.523 282.883L351.45 323.971L351.182 324.24L207.734 467.741L166.019 426.03C159.623 419.638 154.55 412.048 151.088 403.692C147.626 395.338 145.845 386.382 145.845 377.337C145.845 368.293 147.626 359.337 151.088 350.983C154.55 342.629 159.623 335.038 166.019 328.645L260.804 233.875L166.294 139.381C159.905 132.989 154.836 125.401 151.378 117.05C147.92 108.699 146.14 99.7477 146.14 90.708C146.14 81.6686 147.92 72.7175 151.378 64.3662C154.836 56.0148 159.905 48.4267 166.294 42.0351L208.01 0.225586L392.797 185.183C405.708 198.079 412.967 215.579 412.983 233.83C412.997 251.489 406.227 268.453 394.115 281.236Z" fill="#2C40F7"/>
</g>
<defs>
<clipPath id="clip0_482_2077">
<rect width="412.282" height="467.516" fill="white" transform="translate(0.717773 0.225586)"/>
</clipPath>
</defs>
</svg>
