<svg width="470" height="470" viewBox="0 0 470 470" fill="none" xmlns="http://www.w3.org/2000/svg">
<g clip-path="url(#clip0_11_7)">
<path fill-rule="evenodd" clip-rule="evenodd" d="M51.1297 283.561L92.8248 325.293L326.366 91.6609L235.936 1.19714L51.1492 186.156C44.7494 192.547 39.6717 200.138 36.2066 208.494C32.7416 216.85 30.9571 225.808 30.9553 234.855C30.9534 243.901 32.7343 252.859 36.196 261.217C39.6577 269.575 44.7323 277.168 51.1297 283.561Z" fill="#061499"/>
<path fill-rule="evenodd" clip-rule="evenodd" d="M422.395 282.013C421.874 282.569 421.343 283.118 420.803 283.66L379.731 324.749L379.463 325.017L236.015 468.52L194.3 426.808C187.905 420.417 182.831 412.826 179.369 404.47C175.908 396.116 174.126 387.16 174.126 378.115C174.126 369.07 175.908 360.115 179.369 351.76C182.831 343.406 187.905 335.815 194.3 329.422L289.084 234.651L194.576 140.157C188.186 133.765 183.117 126.177 179.659 117.825C176.201 109.474 174.421 100.523 174.421 91.4833C174.421 82.4438 176.201 73.4926 179.659 65.1412C183.117 56.7897 188.186 49.2015 194.576 42.8099L236.291 1L421.077 185.959C433.988 198.856 441.247 216.355 441.263 234.606C441.277 252.265 434.507 269.23 422.395 282.013Z" fill="#2C40F7"/>
</g>
<defs>
<clipPath id="clip0_11_7">
<rect width="412.28" height="467.52" fill="white" transform="translate(29 1)"/>
</clipPath>
</defs>
</svg>
