<svg width="209" height="237" viewBox="0 0 209 237" fill="none" xmlns="http://www.w3.org/2000/svg">
<path fill-rule="evenodd" clip-rule="evenodd" d="M11.2147 143.239L32.3515 164.394L150.742 45.9588L104.9 0.0999985L11.2246 93.8612C7.9803 97.1012 5.40623 100.949 3.64966 105.185C1.89309 109.421 0.988475 113.962 0.98755 118.548C0.986624 123.134 1.88941 127.675 3.64427 131.912C5.39913 136.149 7.97164 139.998 11.2147 143.239Z" fill="url(#paint0_linear)"/>
<path fill-rule="evenodd" clip-rule="evenodd" d="M199.423 142.454C199.159 142.736 198.89 143.014 198.616 143.289L177.795 164.118L177.659 164.254L104.94 237L83.7934 215.855C80.5512 212.615 77.9792 208.767 76.2243 204.531C74.4695 200.296 73.5663 195.756 73.5663 191.171C73.5663 186.586 74.4695 182.046 76.2243 177.811C77.9792 173.576 80.5512 169.728 83.7934 166.487L131.843 118.445L83.933 70.5427C80.6938 67.3026 78.1243 63.4559 76.3712 59.2223C74.6181 54.9887 73.7158 50.4512 73.7158 45.8687C73.7158 41.2863 74.6181 36.7487 76.3712 32.5151C78.1243 28.2815 80.6938 24.4348 83.933 21.1947L105.08 0L198.755 93.7612C205.3 100.299 208.98 109.17 208.988 118.422C208.995 127.374 205.563 135.974 199.423 142.454Z" fill="url(#paint1_linear)"/>
<defs>
<linearGradient id="paint0_linear" x1="107.5" y1="-7.53827e-06" x2="0.999993" y2="164" gradientUnits="userSpaceOnUse">
<stop stop-color="#B96723"/>
<stop offset="1" stop-color="#F7892E"/>
</linearGradient>
<linearGradient id="paint1_linear" x1="141.277" y1="0" x2="141.277" y2="237" gradientUnits="userSpaceOnUse">
<stop stop-color="#F7892E"/>
<stop offset="1" stop-color="#FAC231"/>
</linearGradient>
</defs>
</svg>
