<svg xmlns="http://www.w3.org/2000/svg" xmlns:xlink="http://www.w3.org/1999/xlink" xmlns:lucid="lucid" width="963" height="482"><g transform="translate(-60 -5)" lucid:page-tab-id="9xiAA38_Xw12"><path d="M0 0h1323.2v1870.4H0z" fill="#fff"/><path d="M24.86 170h240v60h-240z" fill="none"/><use xlink:href="#a" transform="matrix(1,0,0,1,24.857142857142833,170) translate(81.74913194444446 35.73784722222222)"/><use xlink:href="#b" transform="matrix(1,0,0,1,24.857142857142833,170) translate(117.33940972222223 35.73784722222222)"/><path d="M144.84 122.7l14.5 9.85v2.66c0 6.98-6.5 12.64-14.5 12.64s-14.5-5.66-14.5-12.63v-2.65zM153.1 151.34c9.2 0 16.6 4.85 16.6 12.72V180h-9.53V168.8h-1.64V180h-27.05V168.8h-1.64V180H120v-15.94c0-7.87 7.4-12.72 16.6-12.72z" fill="#7d7c7c"/><path d="M144.83 120c7.95.05 14.34 5.7 14.3 12.63-.07 6.9-6.58 12.48-14.53 12.43-7.9-.05-14.26-5.62-14.28-12.5 0-6.95 6.5-12.56 14.48-12.56h.03zM153.1 148.68c9.2 0 16.6 4.84 16.6 12.72v15.93h-9.53v-11.2h-1.64v11.2h-27.05v-11.2h-1.64v11.2H120V161.4c0-7.88 7.4-12.72 16.6-12.72z" fill="#d2d3d3"/><g filter="url(#c)"><path d="M260 121.87h122.83v56.26H260z" stroke="#000" fill="url(#d)"/><use xlink:href="#e" transform="matrix(1,0,0,1,265,126.86631944444444) translate(6.565104166666671 29.678819444444443)"/><use xlink:href="#f" transform="matrix(1,0,0,1,265,126.86631944444444) translate(52.00781249999999 29.678819444444443)"/></g><g filter="url(#g)"><path d="M397.98 123.73H520.8V180H398z" stroke="#000" fill="url(#h)"/><use xlink:href="#e" transform="matrix(1,0,0,1,402.9775028121485,128.7326388888889) translate(3.6527777777777857 20.866319444444443)"/><use xlink:href="#i" transform="matrix(1,0,0,1,402.9775028121485,128.7326388888889) translate(49.09548611111111 20.866319444444443)"/><use xlink:href="#j" transform="matrix(1,0,0,1,402.9775028121485,128.7326388888889) translate(32.16840277777778 39.373263888888886)"/><use xlink:href="#k" transform="matrix(1,0,0,1,402.9775028121485,128.7326388888889) translate(58.635416666666664 39.373263888888886)"/></g><g filter="url(#l)"><path d="M535.96 123.73H658.8v60H535.95z" stroke="#000" fill="url(#m)"/><use xlink:href="#n" transform="matrix(1,0,0,1,540.9550056242971,128.7326388888889) translate(11.552083333333343 21.241319444444443)"/><use xlink:href="#o" transform="matrix(1,0,0,1,540.9550056242971,128.7326388888889) translate(38.01909722222223 21.241319444444443)"/><use xlink:href="#p" transform="matrix(1,0,0,1,540.9550056242971,128.7326388888889) translate(32.7109375 39.748263888888886)"/></g><g filter="url(#q)"><path d="M680 123.73h122.83v60H680z" stroke="#000" fill="url(#r)"/><use xlink:href="#n" transform="matrix(1,0,0,1,685.0000000000001,128.7326388888889) translate(20.267361111111114 21.366319444444443)"/><use xlink:href="#s" transform="matrix(1,0,0,1,685.0000000000001,128.7326388888889) translate(46.734375 21.366319444444443)"/><use xlink:href="#t" transform="matrix(1,0,0,1,685.0000000000001,128.7326388888889) translate(10.870659722222229 39.873263888888886)"/></g><g filter="url(#u)"><path d="M860 125.6h122.83v58.13H860z" stroke="#000" fill="#f29d38"/><use xlink:href="#v" transform="matrix(1,0,0,1,865.0000000000001,130.59895833333337) translate(15.210937500000007 21.116319444444443)"/><use xlink:href="#w" transform="matrix(1,0,0,1,865.0000000000001,130.59895833333337) translate(43.861111111111114 39.623263888888886)"/></g><path d="M321.42 179.13V439.5" stroke="#000" fill="none"/><path d="M321.92 179.15h-1v-.52h1z"/><path d="M321.42 439.5v.5M459.4 181v128.95c0 .16.13.3.3.3.16 0 .3.14.3.3V439.5" stroke="#000" fill="none"/><path d="M459.9 181h-1v-.5h1z"/><path d="M460 439.5v.5M597.37 184.73V439.5" stroke="#000" fill="none"/><path d="M597.87 184.75h-1v-.52h1z"/><path d="M597.37 439.5v.5M741.42 184.73V439.5" stroke="#000" fill="none"/><path d="M741.92 184.75h-1v-.52h1z"/><path d="M741.42 439.5v.5M921.42 184.73V439.5" stroke="#000" fill="none"/><path d="M921.92 184.75h-1v-.52h1z"/><path d="M921.42 439.5v.5" stroke="#000" fill="none"/><path d="M144.86 241v198M144.86 241.03V240M144.86 438.97V440M145.86 260h157.06M145.88 260h-1.02" stroke="#000" stroke-width="2" fill="none"/><path d="M318.18 260l-14.26 4.64v-9.28z" stroke="#000" stroke-width="2"/><use xlink:href="#x" transform="matrix(1,0,0,1,220.97577456358397,237.49305555555554) translate(0.005000000000000782 14.991319444444445)"/><path d="M322.42 271.75H440.9M322.44 271.75h-1.02" stroke="#000" stroke-width="2" fill="none"/><path d="M456.16 271.75l-14.27 4.63v-9.27z" stroke="#000" stroke-width="2"/><use xlink:href="#x" transform="matrix(1,0,0,1,378.2447912848894,249.2388700067409) translate(0.005000000000000782 14.991319444444445)"/><path d="M460.4 281.62h118.48M460.42 281.62h-1.03" stroke="#000" stroke-width="2" fill="none"/><path d="M594.14 281.62l-14.27 4.64V277z" stroke="#000" stroke-width="2"/><use xlink:href="#x" transform="matrix(1,0,0,1,516.2223762635527,259.1101134157268) translate(0.005000000000000782 14.991319444444445)"/><path d="M598.37 291.46h124.55M598.4 291.46h-1.03" stroke="#000" stroke-width="2" fill="none"/><path d="M738.18 291.46l-14.26 4.63v-9.28z" stroke="#000" stroke-width="2"/><use xlink:href="#x" transform="matrix(1,0,0,1,657.2333673134609,268.95124198717957) translate(0.005000000000000782 14.991319444444445)"/><path d="M742.42 302.28h160.5M742.44 302.28h-1.02" stroke="#000" stroke-width="2" fill="none"/><path d="M918.18 302.28l-14.27 4.63v-9.26z" stroke="#000" stroke-width="2"/><use xlink:href="#x" transform="matrix(1,0,0,1,819.2558645013124,279.7721688034188) translate(0.005000000000000782 14.991319444444445)"/><path d="M759.92 342.33h160.5" stroke="#000" stroke-width="2" fill="none"/><path d="M744.65 342.33l14.27-4.64v9.26z" stroke="#000" stroke-width="2"/><path d="M920.4 342.33h1.02M478.5 361.3h117.88" stroke="#000" stroke-width="2" fill="none"/><path d="M463.24 361.3l14.26-4.64v9.28z" stroke="#000" stroke-width="2"/><path d="M596.35 361.3h1.02M163.36 380.1h157.06" stroke="#000" stroke-width="2" fill="none"/><path d="M148.1 380.1l14.26-4.62v9.27z" stroke="#000" stroke-width="2"/><path d="M320.4 380.1h1.02M615.87 350.48h124.55" stroke="#000" stroke-width="2" fill="none"/><path d="M600.6 350.48l14.27-4.63v9.27z" stroke="#000" stroke-width="2"/><path d="M740.4 350.48h1.02M339.92 369.48H459" stroke="#000" stroke-width="2" fill="none"/><path d="M324.65 369.48l14.27-4.64v9.27z" stroke="#000" stroke-width="2"/><path d="M458.97 369.48H460" stroke="#000" stroke-width="2" fill="none"/><g fill="none"><path d="M266 100c-3.3 0-6-2.7-6-6V26c0-3.3 2.7-6 6-6h528c3.3 0 6 2.7 6 6v68c0 3.3-2.7 6-6 6z"/><path d="M800 100c0-5.52-4.48-10-10-10H540c-5.52 0-10-4.48-10-10 0 5.52-4.48 10-10 10H270c-5.52 0-10 4.48-10 10" stroke="#000" stroke-width="3"/></g><use xlink:href="#y" transform="matrix(1,0,0,1,265.0000000000001,24.99999999999995) translate(186.15342881944446 27.67230902777778)"/><use xlink:href="#z" transform="matrix(1,0,0,1,265.0000000000001,24.99999999999995) translate(243.04361979166669 27.67230902777778)"/><defs><path fill="#333" d="M892-988c1-180-155-261-350-261-239 0-359 83-359 250 0 109 72 186 218 225 134 36 273 57 404 101 148 49 217 165 217 318 0 218-259 377-488 377C285 22 54-135 53-369h130c6 176 157 261 349 261 178 0 360-88 360-250 0-109-72-188-217-228-134-37-272-59-404-103C123-738 53-851 53-998c0-227 241-381 478-381 258 0 497 146 491 391H892" id="A"/><path fill="#333" d="M848-827c4-216-138-398-348-398H204v1095h296c203 6 348-189 348-398v-299zm130 299C987-254 769 0 500 0H74v-1355h426c267-9 478 255 478 528v299" id="B"/><path fill="#333" d="M192-725l627-630h187L456-801 1032 0H869L359-702 192-536V0H61v-1355h131v630" id="C"/><g id="a"><use transform="matrix(0.008680555555555554,0,0,0.008680555555555554,0,0)" xlink:href="#A"/><use transform="matrix(0.008680555555555554,0,0,0.008680555555555554,9.765624999999998,0)" xlink:href="#B"/><use transform="matrix(0.008680555555555554,0,0,0.008680555555555554,19.288194444444443,0)" xlink:href="#C"/></g><path fill="#333" d="M540 22C268 22 57-229 57-506v-345c-8-277 211-528 483-528 249 0 439 198 473 423H885c-28-159-165-293-345-293-205 0-353 174-353 382v377c-5 208 148 382 353 382 180 0 318-134 345-293h128C979-176 789 22 540 22" id="D"/><path fill="#333" d="M86-1355h132V0H86v-1355" id="E"/><path fill="#333" d="M240-1205c-40 0-79-36-79-76s39-76 79-76c41 0 78 35 78 76s-37 76-78 76zM47-957h257V0H174v-827H47v-130" id="F"/><path fill="#333" d="M52-478c0-256 228-501 485-501 264 0 489 248 480 516H180c0 180 174 355 357 355 148 0 301-110 347-219l130 23C955-140 749 17 537 22 280 28 52-222 52-478zm815-115c-38-129-172-257-330-256-158 0-295 130-340 256h670" id="G"/><path fill="#333" d="M545-849c-196 0-341 171-341 371V0H74v-957h130v174c77-131 190-196 341-196 285 0 449 200 449 493V0H862v-478c2-219-106-371-317-371" id="H"/><path fill="#333" d="M406 0C279 4 176-105 176-232v-595H26v-130c75 0 120-17 137-51 9-17 13-69 13-155h130v206h241v130H306v595c0 70 49 105 146 105 18 0 78-3 95-3V0H406" id="I"/><g id="b"><use transform="matrix(0.008680555555555554,0,0,0.008680555555555554,0,0)" xlink:href="#D"/><use transform="matrix(0.008680555555555554,0,0,0.008680555555555554,9.583333333333332,0)" xlink:href="#E"/><use transform="matrix(0.008680555555555554,0,0,0.008680555555555554,12.664930555555554,0)" xlink:href="#F"/><use transform="matrix(0.008680555555555554,0,0,0.008680555555555554,16.137152777777775,0)" xlink:href="#G"/><use transform="matrix(0.008680555555555554,0,0,0.008680555555555554,25.90277777777777,0)" xlink:href="#H"/><use transform="matrix(0.008680555555555554,0,0,0.008680555555555554,35.59895833333333,0)" xlink:href="#I"/></g><linearGradient gradientUnits="userSpaceOnUse" id="d" x1="260" y1="121.87" x2="382.83" y2="171.88"><stop offset="0%" stop-color="#f9b92c"/><stop offset="100%" stop-color="#f7892e"/></linearGradient><path fill="#333" d="M192-484c0 176 132 340 304 340 176 0 296-170 296-340 0-175-125-342-296-342-172 0-304 166-304 342zM962-87c7 262-205 470-468 470C247 383 70 200 36-22l162-27c41 178 140 267 297 267 189 0 305-150 302-345C718-28 618 21 496 21 226 21 26-209 26-484c0-263 209-507 470-507 123 0 224 50 301 151v-130h165v883" id="J"/><path fill="#333" d="M812-932c0-167-190-264-368-264H218v528h244c168 4 350-105 350-264zm166 0c-6 217-176 357-367 405L904 0H711L431-503H218V0H51v-1357h393c258-7 540 177 534 425" id="K"/><path fill="#333" d="M812-932c0-173-180-260-368-260H218v524h226c185 4 368-93 368-264zm166 0c0 250-274 437-534 429H218V0H51v-1357h393c258-7 534 177 534 425" id="L"/><path fill="#333" d="M525 21C250 26 36-232 36-512v-335c-8-279 214-533 489-533 269 0 443 204 484 450H844c-26-159-149-285-319-285-187 0-324 162-324 352v367c-5 191 137 352 324 352 171 0 294-127 319-285h165C968-183 794 16 525 21" id="M"/><g id="e"><use transform="matrix(0.008680555555555554,0,0,0.008680555555555554,0,0)" xlink:href="#J"/><use transform="matrix(0.008680555555555554,0,0,0.008680555555555554,9.809027777777777,0)" xlink:href="#K"/><use transform="matrix(0.008680555555555554,0,0,0.008680555555555554,19.592013888888886,0)" xlink:href="#L"/><use transform="matrix(0.008680555555555554,0,0,0.008680555555555554,29.05381944444444,0)" xlink:href="#M"/></g><path fill="#333" d="M32-990c0-232 243-390 485-390 230 0 384 80 460 242 25 53 37 112 37 177H848c0-169-110-254-331-254-175 0-321 66-320 224 0 68 25 124 82 157 72 43 313 83 425 114 184 50 303 136 310 344 8 234-251 397-495 397C251 21 32-142 31-398h166c5 169 112 254 321 254 161 0 330-78 330-223 0-98-70-169-211-207-131-36-266-59-393-103C99-727 32-841 32-990" id="N"/><path fill="#333" d="M816-616c-46-109-154-210-294-210-133 0-258 109-301 210h595zM31-484c0-260 230-507 491-507 282 0 495 254 487 541H196c10 148 163 311 326 306 147-5 277-104 326-215l166 28C947-150 753 16 522 21 260 27 31-223 31-484" id="O"/><path fill="#333" d="M535-805c-177 0-317 145-317 321V0H51v-970h167v134c85-89 189-134 310-134h218v218c-83-35-153-53-211-53" id="P"/><path fill="#333" d="M187-970l311 757c69-168 171-420 308-757h181L592 0H399L3-970h184" id="Q"/><g id="f"><use transform="matrix(0.008680555555555554,0,0,0.008680555555555554,0,0)" xlink:href="#N"/><use transform="matrix(0.008680555555555554,0,0,0.008680555555555554,10.026041666666664,0)" xlink:href="#O"/><use transform="matrix(0.008680555555555554,0,0,0.008680555555555554,20.05208333333333,0)" xlink:href="#P"/><use transform="matrix(0.008680555555555554,0,0,0.008680555555555554,27.751736111111107,0)" xlink:href="#Q"/><use transform="matrix(0.008680555555555554,0,0,0.008680555555555554,36.701388888888886,0)" xlink:href="#O"/><use transform="matrix(0.008680555555555554,0,0,0.008680555555555554,46.72743055555555,0)" xlink:href="#P"/></g><filter id="c" filterUnits="objectBoundingBox" x="-.11" y="-.24" width="1.26" height="1.57"><feOffset result="offOut" in="SourceAlpha" dx="3.03" dy="2.61"/><feGaussianBlur result="blurOut" in="offOut" stdDeviation="8"/><feColorMatrix result="colorOut" in="blurOut" values="0 0 0 0 0 0 0 0 0 0 0 0 0 0 0 0 0 0 0.28627450980392155 0"/><feBlend in="SourceGraphic" in2="colorOut"/></filter><linearGradient gradientUnits="userSpaceOnUse" id="h" x1="397.98" y1="123.73" x2="520.81" y2="173.75"><stop offset="0%" stop-color="#f9b92c"/><stop offset="100%" stop-color="#f7892e"/></linearGradient><path fill="#333" d="M233-1172c-50 0-96-44-96-94 0-49 46-93 96-93s96 43 96 93c0 52-44 94-96 94zM26-970h289V0H150v-805H26v-165" id="R"/><path fill="#333" d="M30-484c0-265 224-507 485-507 196 0 345 102 446 305H770c-63-93-148-140-255-140-177 0-319 167-319 342 0 176 146 340 319 340 93 0 176-43 249-128h193C846-77 699 21 515 21 254 21 30-224 30-484" id="S"/><g id="i"><use transform="matrix(0.008680555555555554,0,0,0.008680555555555554,0,0)" xlink:href="#N"/><use transform="matrix(0.008680555555555554,0,0,0.008680555555555554,10.026041666666664,0)" xlink:href="#O"/><use transform="matrix(0.008680555555555554,0,0,0.008680555555555554,20.05208333333333,0)" xlink:href="#P"/><use transform="matrix(0.008680555555555554,0,0,0.008680555555555554,27.751736111111107,0)" xlink:href="#Q"/><use transform="matrix(0.008680555555555554,0,0,0.008680555555555554,37.39583333333333,0)" xlink:href="#R"/><use transform="matrix(0.008680555555555554,0,0,0.008680555555555554,41.128472222222214,0)" xlink:href="#S"/><use transform="matrix(0.008680555555555554,0,0,0.008680555555555554,50.225694444444436,0)" xlink:href="#O"/></g><path fill="#333" d="M206-772l583-585h236L469-797 1042 0H836L346-672 206-533V0H40v-1357h166v585" id="T"/><path fill="#333" d="M180-1357L494-312c71-232 178-580 319-1045h172L579 0H412L6-1357h174" id="U"/><g id="j"><use transform="matrix(0.008680555555555554,0,0,0.008680555555555554,0,0)" xlink:href="#T"/><use transform="matrix(0.008680555555555554,0,0,0.008680555555555554,10.277777777777777,0)" xlink:href="#U"/></g><path fill="#333" d="M413 393C30 316-11-536 113-995c58-214 161-336 300-367v143c-127 54-191 299-191 735 0 435 64 680 191 734v143" id="V"/><path fill="#333" d="M32-739v-135c80 0 122-32 126-96h125v805h68V0H32v-165h86v-574H32" id="W"/><path fill="#333" d="M35-1360c382 78 425 930 300 1388-59 215-161 336-300 367V252c128-53 192-298 192-735 0-436-64-681-192-734v-143" id="X"/><g id="k"><use transform="matrix(0.008680555555555554,0,0,0.008680555555555554,0,0)" xlink:href="#V"/><use transform="matrix(0.008680555555555554,0,0,0.008680555555555554,4.470486111111111,0)" xlink:href="#U"/><use transform="matrix(0.008680555555555554,0,0,0.008680555555555554,14.114583333333334,0)" xlink:href="#W"/><use transform="matrix(0.008680555555555554,0,0,0.008680555555555554,17.98611111111111,0)" xlink:href="#X"/></g><filter id="g" filterUnits="objectBoundingBox" x="-.11" y="-.24" width="1.26" height="1.57"><feOffset result="offOut" in="SourceAlpha" dx="3.03" dy="2.61"/><feGaussianBlur result="blurOut" in="offOut" stdDeviation="8"/><feColorMatrix result="colorOut" in="blurOut" values="0 0 0 0 0 0 0 0 0 0 0 0 0 0 0 0 0 0 0.28627450980392155 0"/><feBlend in="SourceGraphic" in2="colorOut"/></filter><linearGradient gradientUnits="userSpaceOnUse" id="m" x1="535.96" y1="123.73" x2="658.79" y2="177.07"><stop offset="0%" stop-color="#f9b92c"/><stop offset="100%" stop-color="#f7892e"/></linearGradient><g id="n"><use transform="matrix(0.008680555555555554,0,0,0.008680555555555554,0,0)" xlink:href="#T"/><use transform="matrix(0.008680555555555554,0,0,0.008680555555555554,10.277777777777777,0)" xlink:href="#U"/></g><path fill="#333" d="M651-670c-28-91-69-228-123-411-28 91-70 228-125 411h248zM849 0L698-503H353C289-288 238-121 201 0H29l407-1357h185L1027 0H849" id="Y"/><path fill="#333" d="M860-484c0-175-137-342-310-342-172 0-345 169-345 342s167 340 340 340c172 0 315-166 315-340zm-820 0c0-260 250-507 510-507 131 0 236 50 315 149v-515h167V0H865v-128C782-29 675 21 545 21 285 21 40-224 40-484" id="Z"/><path fill="#333" d="M484-144c91 0 275-43 275-120v-184c-54 18-283 13-339 27-84 21-172 73-172 157 0 80 79 120 236 120zm27-847c168 0 413 106 413 260v563c0 15 16 23 48 26-4 64-6 118-6 163-81-4-138-29-172-76-80 51-181 76-304 76C213 21 75-75 75-266c0-155 132-276 270-302-15-8 340-16 395-49 13-7 20-20 21-39-1 24-2 8-2-49 0-71-154-124-234-124-152 0-248 58-288 173L79-690c32-191 203-301 432-301" id="aa"/><path fill="#333" d="M223-484c0 174 142 340 313 340 169 0 319-168 319-340 0-174-147-342-319-342-173 0-313 166-313 342zm798 0c0 261-225 505-485 505-129 0-235-50-318-149v516H53V-970h165v128c83-99 189-149 318-149 260 0 485 246 485 507" id="ab"/><path fill="#333" d="M395 0C260 4 152-110 152-245v-560H6v-165c76 0 121-15 136-44 7-13 10-65 10-156h165v200h235v165H317v560c-9 115 138 72 235 80V0H395" id="ac"/><g id="o"><use transform="matrix(0.008680555555555554,0,0,0.008680555555555554,0,0)" xlink:href="#Y"/><use transform="matrix(0.008680555555555554,0,0,0.008680555555555554,10.243055555555554,0)" xlink:href="#Z"/><use transform="matrix(0.008680555555555554,0,0,0.008680555555555554,20.694444444444443,0)" xlink:href="#aa"/><use transform="matrix(0.008680555555555554,0,0,0.008680555555555554,30.20833333333333,0)" xlink:href="#ab"/><use transform="matrix(0.008680555555555554,0,0,0.008680555555555554,40.13020833333333,0)" xlink:href="#ac"/><use transform="matrix(0.008680555555555554,0,0,0.008680555555555554,45.70312499999999,0)" xlink:href="#O"/><use transform="matrix(0.008680555555555554,0,0,0.008680555555555554,55.72916666666666,0)" xlink:href="#P"/></g><g id="p"><use transform="matrix(0.008680555555555554,0,0,0.008680555555555554,0,0)" xlink:href="#V"/><use transform="matrix(0.008680555555555554,0,0,0.008680555555555554,4.470486111111111,0)" xlink:href="#J"/><use transform="matrix(0.008680555555555554,0,0,0.008680555555555554,14.279513888888888,0)" xlink:href="#K"/><use transform="matrix(0.008680555555555554,0,0,0.008680555555555554,24.062499999999996,0)" xlink:href="#L"/><use transform="matrix(0.008680555555555554,0,0,0.008680555555555554,33.52430555555555,0)" xlink:href="#M"/><use transform="matrix(0.008680555555555554,0,0,0.008680555555555554,43.36805555555555,0)" xlink:href="#X"/></g><filter id="l" filterUnits="objectBoundingBox" x="-.11" y="-.22" width="1.26" height="1.53"><feOffset result="offOut" in="SourceAlpha" dx="3.03" dy="2.61"/><feGaussianBlur result="blurOut" in="offOut" stdDeviation="8"/><feColorMatrix result="colorOut" in="blurOut" values="0 0 0 0 0 0 0 0 0 0 0 0 0 0 0 0 0 0 0.28627450980392155 0"/><feBlend in="SourceGraphic" in2="colorOut"/></filter><linearGradient gradientUnits="userSpaceOnUse" id="r" x1="680" y1="123.73" x2="802.83" y2="177.07"><stop offset="0%" stop-color="#f9b92c"/><stop offset="100%" stop-color="#f7892e"/></linearGradient><path fill="#333" d="M125-1357h167V0H125v-1357" id="ad"/><path fill="#333" d="M470-144c172 0 264-158 264-340v-486h165V0H734v-96C656-18 568 21 470 21 202 21 46-186 46-463v-507h165v507c-4 167 99 319 259 319" id="ae"/><path fill="#333" d="M530-826c-179 0-312 160-312 342V0H53v-970h165v127c78-99 182-148 312-148 289 0 456 203 456 499V0H819v-484c2-203-95-342-289-342" id="af"/><g id="s"><use transform="matrix(0.008680555555555554,0,0,0.008680555555555554,0,0)" xlink:href="#L"/><use transform="matrix(0.008680555555555554,0,0,0.008680555555555554,9.461805555555554,0)" xlink:href="#ad"/><use transform="matrix(0.008680555555555554,0,0,0.008680555555555554,13.211805555555554,0)" xlink:href="#ae"/><use transform="matrix(0.008680555555555554,0,0,0.008680555555555554,22.499999999999996,0)" xlink:href="#J"/><use transform="matrix(0.008680555555555554,0,0,0.008680555555555554,32.30902777777777,0)" xlink:href="#R"/><use transform="matrix(0.008680555555555554,0,0,0.008680555555555554,36.041666666666664,0)" xlink:href="#af"/></g><path fill="#333" d="M806-824c4-200-126-368-320-368H218v1027h268c188 5 320-174 320-368v-291zm165 291C979-257 759 0 486 0H53v-1357h433c271-10 485 257 485 533v291" id="ag"/><path fill="#333" d="M227 223c70 1 118-13 144-44 18-20 89-200 113-260L-1-970h190l373 688 274-688h179L558 176c-61 148-166 217-331 211V223" id="ah"/><path fill="#333" d="M1018-991c257 0 359 224 359 507V0h-166v-484c0-228-64-342-193-342-155-1-215 166-215 342V0H637l-1-484c0-228-64-342-193-342-159-1-225 164-225 342V0H53v-970h165v68c59-59 134-89 225-89 133 0 229 56 286 168 46-112 142-168 289-168" id="ai"/><path fill="#333" d="M838-484c0-173-151-342-322-342-177 0-319 167-319 342 0 176 146 340 319 340 171 0 322-167 322-340zm-807 0c0-265 224-507 485-507 260 0 487 246 487 507 0 260-229 505-487 505C255 21 31-224 31-484" id="aj"/><path fill="#333" d="M770-968c0-129-144-224-277-224H218v448h271c138 4 281-91 281-224zm67 592c0-117-165-199-291-199H218v410h328c125 5 291-93 291-211zm161 0C998-158 773 0 546 0H53v-1357h433c236-5 449 159 449 389 0 115-46 209-137 282 133 73 200 176 200 310" id="ak"/><g id="t"><use transform="matrix(0.008680555555555554,0,0,0.008680555555555554,0,0)" xlink:href="#V"/><use transform="matrix(0.008680555555555554,0,0,0.008680555555555554,4.470486111111111,0)" xlink:href="#ag"/><use transform="matrix(0.008680555555555554,0,0,0.008680555555555554,14.25347222222222,0)" xlink:href="#ah"/><use transform="matrix(0.008680555555555554,0,0,0.008680555555555554,24.097222222222218,0)" xlink:href="#af"/><use transform="matrix(0.008680555555555554,0,0,0.008680555555555554,34.05381944444444,0)" xlink:href="#aa"/><use transform="matrix(0.008680555555555554,0,0,0.008680555555555554,43.56770833333333,0)" xlink:href="#ai"/><use transform="matrix(0.008680555555555554,0,0,0.008680555555555554,57.256944444444436,0)" xlink:href="#aj"/><use transform="matrix(0.008680555555555554,0,0,0.008680555555555554,67.2829861111111,0)" xlink:href="#ag"/><use transform="matrix(0.008680555555555554,0,0,0.008680555555555554,77.06597222222221,0)" xlink:href="#ak"/><use transform="matrix(0.008680555555555554,0,0,0.008680555555555554,87.0486111111111,0)" xlink:href="#X"/></g><filter id="q" filterUnits="objectBoundingBox" x="-.11" y="-.22" width="1.26" height="1.53"><feOffset result="offOut" in="SourceAlpha" dx="3.03" dy="2.61"/><feGaussianBlur result="blurOut" in="offOut" stdDeviation="8"/><feColorMatrix result="colorOut" in="blurOut" values="0 0 0 0 0 0 0 0 0 0 0 0 0 0 0 0 0 0 0.28627450980392155 0"/><feBlend in="SourceGraphic" in2="colorOut"/></filter><g id="v"><use transform="matrix(0.008680555555555554,0,0,0.008680555555555554,0,0)" xlink:href="#ag"/><use transform="matrix(0.008680555555555554,0,0,0.008680555555555554,9.782986111111109,0)" xlink:href="#ah"/><use transform="matrix(0.008680555555555554,0,0,0.008680555555555554,19.626736111111107,0)" xlink:href="#af"/><use transform="matrix(0.008680555555555554,0,0,0.008680555555555554,29.58333333333333,0)" xlink:href="#aa"/><use transform="matrix(0.008680555555555554,0,0,0.008680555555555554,39.097222222222214,0)" xlink:href="#ai"/><use transform="matrix(0.008680555555555554,0,0,0.008680555555555554,52.78645833333333,0)" xlink:href="#aj"/><use transform="matrix(0.008680555555555554,0,0,0.008680555555555554,62.812499999999986,0)" xlink:href="#ag"/><use transform="matrix(0.008680555555555554,0,0,0.008680555555555554,72.5954861111111,0)" xlink:href="#ak"/></g><path fill="#333" d="M28-165h167v-1028H28v-164h505v164H362v1028h171V0H28v-165" id="al"/><g id="w"><use transform="matrix(0.008680555555555554,0,0,0.008680555555555554,0,0)" xlink:href="#Y"/><use transform="matrix(0.008680555555555554,0,0,0.008680555555555554,10.243055555555554,0)" xlink:href="#L"/><use transform="matrix(0.008680555555555554,0,0,0.008680555555555554,19.704861111111107,0)" xlink:href="#al"/></g><filter id="u" filterUnits="objectBoundingBox" x="-.11" y="-.23" width="1.26" height="1.55"><feOffset result="offOut" in="SourceAlpha" dx="3.03" dy="2.61"/><feGaussianBlur result="blurOut" in="offOut" stdDeviation="8"/><feColorMatrix result="colorOut" in="blurOut" values="0 0 0 0 0 0 0 0 0 0 0 0 0 0 0 0 0 0 0.28627450980392155 0"/><feBlend in="SourceGraphic" in2="colorOut"/></filter><g id="x"><use transform="matrix(0.008680555555555556,0,0,0.008680555555555556,0,0)" xlink:href="#L"/><use transform="matrix(0.008680555555555556,0,0,0.008680555555555556,9.461805555555555,0)" xlink:href="#ae"/><use transform="matrix(0.008680555555555556,0,0,0.008680555555555556,18.75,0)" xlink:href="#ac"/></g><path fill="#333" d="M227-1355L895-225v-1130h132V0H873L204-1135V0H72v-1355h155" id="am"/><path fill="#333" d="M550-827c-191 0-346 159-346 349V0H72v-957h132v174c85-116 198-174 339-174h204v174c-69-29-134-44-197-44" id="an"/><path fill="#333" d="M51-478c0-256 221-509 478-501 201 6 353 126 426 274H803c-71-96-163-144-274-144-189 0-348 180-348 372 0 191 160 369 348 369 100 0 189-44 266-132h155C852-65 712 22 529 22 275 22 51-223 51-478" id="ao"/><g id="y"><use transform="matrix(0.010850694444444444,0,0,0.010850694444444444,0,0)" xlink:href="#am"/><use transform="matrix(0.010850694444444444,0,0,0.010850694444444444,12.651909722222221,0)" xlink:href="#F"/><use transform="matrix(0.010850694444444444,0,0,0.010850694444444444,16.9921875,0)" xlink:href="#I"/><use transform="matrix(0.010850694444444444,0,0,0.010850694444444444,23.6328125,0)" xlink:href="#an"/><use transform="matrix(0.010850694444444444,0,0,0.010850694444444444,32.931857638888886,0)" xlink:href="#F"/><use transform="matrix(0.010850694444444444,0,0,0.010850694444444444,37.272135416666664,0)" xlink:href="#ao"/></g><path fill="#333" d="M204-1131V0H72v-1355h167l417 834 417-834h172V0h-133v-1131L732-373H584" id="ap"/><path fill="#333" d="M455-849c-173 0-251 180-251 371V0H74v-957h130v106c60-85 144-128 251-128 146 0 245 69 296 208 37-139 135-208 295-208 233 0 349 167 349 501V0h-130v-478c0-247-73-371-219-371-169 0-241 180-241 371V0H675l-1-478c0-247-73-371-219-371" id="aq"/><path fill="#333" d="M922-478c0-187-188-371-375-371S209-669 209-478c0 190 155 370 343 370 187 0 370-183 370-370zm130 0c0 255-245 500-500 500-147 0-263-65-348-196V0H72v-1355h132v572c82-131 196-196 343-196 256 0 505 245 505 501" id="ar"/><path fill="#333" d="M497-108c108 0 303-51 303-143v-220c-2 23-338 19-365 38-104 20-200 82-200 182 0 95 87 143 262 143zm28-871c161 0 405 100 405 248v579c0 27 16 41 48 44-1 21-3 64-5 129-72-4-122-33-151-87-82 59-188 88-318 88C233 22 97-70 97-253c0-145 124-253 248-288 70-20 368-9 427-58 17-9 27-25 29-46-1 7-1-13-1-60 0-84-168-147-260-147-166 0-269 58-309 174l-126-27c31-178 203-274 420-274" id="as"/><g id="z"><use transform="matrix(0.010850694444444444,0,0,0.010850694444444444,0,0)" xlink:href="#ap"/><use transform="matrix(0.010850694444444444,0,0,0.010850694444444444,15.13671875,0)" xlink:href="#G"/><use transform="matrix(0.010850694444444444,0,0,0.010850694444444444,27.34375,0)" xlink:href="#aq"/><use transform="matrix(0.010850694444444444,0,0,0.010850694444444444,44.12977430555556,0)" xlink:href="#ar"/><use transform="matrix(0.010850694444444444,0,0,0.010850694444444444,56.47786458333333,0)" xlink:href="#an"/><use transform="matrix(0.010850694444444444,0,0,0.010850694444444444,64.90885416666667,0)" xlink:href="#as"/><use transform="matrix(0.010850694444444444,0,0,0.010850694444444444,76.47569444444444,0)" xlink:href="#H"/><use transform="matrix(0.010850694444444444,0,0,0.010850694444444444,88.59592013888889,0)" xlink:href="#G"/></g></defs></g></svg>